<svg width="46" height="56" viewBox="0 0 46 56" fill="none" xmlns="http://www.w3.org/2000/svg">
<g clip-path="url(#clip0_27_145)">
<path d="M1.89682 47.9909C11.7926 56.9611 33.5953 61.8698 44.9006 43.5342C45.8297 42.0249 44.1104 40.27 42.5869 41.1706C42.1206 41.4483 41.6009 41.8541 41.0206 42.4307C37.3186 46.7201 27.3553 49.2545 23.3329 46.4922C23.0623 46.3071 23.1941 45.88 23.5215 45.8693C25.2764 45.7946 29.4803 45.4778 31.5271 44.1607C31.9258 43.9044 32.2533 43.5484 32.4455 43.1177C32.8656 42.1744 32.3921 41.4767 29.548 41.523C21.0725 41.6796 12.6362 32.5492 1.72596 44.449C0.789781 45.4706 0.860974 47.0582 1.88971 47.9909H1.89682Z" fill="#0C1F3D"/>
<path d="M44.1032 8.01271C34.2075 -0.95754 12.4048 -5.86626 1.0994 12.4694C0.170337 13.9786 1.88964 15.7335 3.41315 14.833C3.87947 14.5553 4.39917 14.1495 4.97939 13.5728C8.6814 9.2835 18.6448 6.74905 22.6672 9.51131C22.9377 9.69641 22.806 10.1236 22.4785 10.1342C20.7236 10.209 16.5197 10.5258 14.4729 11.8429C14.0742 12.0992 13.7467 12.4551 13.5545 12.8858C13.1345 13.8291 13.6079 14.5268 16.4521 14.4805C24.9275 14.3239 33.3638 23.4544 44.2741 11.5545C45.2103 10.5329 45.1391 8.94533 44.1103 8.01271H44.1032Z" fill="#0C1F3D"/>
<path d="M14.1988 22.867V33.133C14.1988 33.763 13.7076 34.2543 13.0954 34.2543C12.4831 34.2543 11.9741 33.763 11.9741 33.133V29.2601H3.26725V33.133C3.26725 33.763 2.77602 34.2543 2.16376 34.2543C1.55151 34.2543 1.04248 33.763 1.04248 33.133V22.867C1.04248 22.2548 1.55151 21.7457 2.16376 21.7457C2.77602 21.7457 3.26725 22.2548 3.26725 22.867V27.0353H11.9741V22.867C11.9741 22.2548 12.4831 21.7457 13.0954 21.7457C13.7076 21.7457 14.1988 22.2548 14.1988 22.867Z" fill="#0C1F3D"/>
<path d="M29.8077 25.9853C29.8077 27.1243 29.3699 28.1744 28.5654 28.9825C27.7788 29.7691 26.7073 30.2248 25.5682 30.2248H18.8761V33.133C18.8761 33.763 18.3849 34.2543 17.7726 34.2543C17.1604 34.2543 16.6514 33.763 16.6514 33.133V29.1035C16.6514 28.4912 17.1426 27.9822 17.7726 27.9822H25.5682C26.6717 27.9822 27.583 27.0887 27.583 25.9853C27.583 24.8818 26.6717 23.9705 25.5682 23.9705H17.7726C17.1426 23.9705 16.6514 23.4793 16.6514 22.867C16.6514 22.2548 17.1426 21.7457 17.7726 21.7457H25.5682C26.7073 21.7457 27.7752 22.2014 28.5654 22.9881C29.3699 23.7925 29.8077 24.8462 29.8077 25.9853Z" fill="#0C1F3D"/>
<path d="M44.8648 32.6773C45.1104 33.2362 44.8648 33.9054 44.306 34.1475C44.1671 34.2187 44.007 34.2543 43.8503 34.2543C43.4303 34.2543 43.0281 34.0086 42.8358 33.6064L38.9452 25.0384C38.6462 24.3905 37.9805 23.9883 37.2793 23.9883C36.578 23.9883 35.9124 24.3905 35.6134 25.0384L31.7049 33.6064C31.4593 34.1653 30.7936 34.4109 30.2348 34.151C29.6759 33.9054 29.4303 33.2398 29.6901 32.6809L33.5808 24.1307C34.2465 22.6926 35.6846 21.7493 37.2757 21.7493C38.8669 21.7493 40.3049 22.6962 40.9564 24.1307L44.8648 32.6809V32.6773ZM39.2762 30.2248C39.2762 31.3282 38.3827 32.2217 37.2793 32.2217C36.1758 32.2217 35.2823 31.3282 35.2823 30.2248C35.2823 29.1213 36.1758 28.2278 37.2793 28.2278C38.3827 28.2278 39.2762 29.1213 39.2762 30.2248Z" fill="#0C1F3D"/>
</g>
<defs>
<clipPath id="clip0_27_145">
<rect width="44.328" height="56" fill="white" transform="translate(0.835938)"/>
</clipPath>
</defs>
</svg>
