<svg width="120" height="76" viewBox="0 0 120 76" fill="none" xmlns="http://www.w3.org/2000/svg">
<g clip-path="url(#clip0_15_2699)">
<g clip-path="url(#clip1_15_2699)">
<path d="M38.8968 57.9909C48.7926 66.9611 70.5953 71.8698 81.9006 53.5342C82.8297 52.0249 81.1104 50.27 79.5869 51.1706C79.1206 51.4483 78.6009 51.8541 78.0206 52.4307C74.3186 56.7201 64.3553 59.2545 60.3329 56.4922C60.0623 56.3071 60.1941 55.88 60.5215 55.8693C62.2764 55.7946 66.4803 55.4778 68.5271 54.1607C68.9258 53.9044 69.2533 53.5484 69.4455 53.1177C69.8656 52.1744 69.3921 51.4767 66.548 51.523C58.0725 51.6796 49.6362 42.5492 38.726 54.449C37.7898 55.4706 37.861 57.0582 38.8897 57.9909H38.8968Z" fill="#0C1F3D"/>
<path d="M81.1032 18.0127C71.2075 9.04246 49.4048 4.13374 38.0994 22.4694C37.1703 23.9786 38.8896 25.7335 40.4132 24.833C40.8795 24.5553 41.3992 24.1495 41.9794 23.5728C45.6814 19.2835 55.6448 16.749 59.6672 19.5113C59.9377 19.6964 59.806 20.1236 59.4785 20.1342C57.7236 20.209 53.5197 20.5258 51.4729 21.8429C51.0742 22.0992 50.7467 22.4551 50.5545 22.8858C50.1345 23.8291 50.6079 24.5268 53.4521 24.4805C61.9275 24.3239 70.3638 33.4544 81.2741 21.5545C82.2103 20.5329 82.1391 18.9453 81.1103 18.0127H81.1032Z" fill="#0C1F3D"/>
<path d="M51.1988 32.867V43.133C51.1988 43.763 50.7076 44.2543 50.0954 44.2543C49.4831 44.2543 48.9741 43.763 48.9741 43.133V39.2601H40.2672V43.133C40.2672 43.763 39.776 44.2543 39.1638 44.2543C38.5515 44.2543 38.0425 43.763 38.0425 43.133V32.867C38.0425 32.2548 38.5515 31.7457 39.1638 31.7457C39.776 31.7457 40.2672 32.2548 40.2672 32.867V37.0353H48.9741V32.867C48.9741 32.2548 49.4831 31.7457 50.0954 31.7457C50.7076 31.7457 51.1988 32.2548 51.1988 32.867Z" fill="#0C1F3D"/>
<path d="M66.8077 35.9853C66.8077 37.1243 66.3699 38.1744 65.5654 38.9825C64.7788 39.7691 63.7073 40.2248 62.5682 40.2248H55.8761V43.133C55.8761 43.763 55.3849 44.2543 54.7726 44.2543C54.1604 44.2543 53.6514 43.763 53.6514 43.133V39.1035C53.6514 38.4912 54.1426 37.9822 54.7726 37.9822H62.5682C63.6717 37.9822 64.583 37.0887 64.583 35.9853C64.583 34.8818 63.6717 33.9705 62.5682 33.9705H54.7726C54.1426 33.9705 53.6514 33.4793 53.6514 32.867C53.6514 32.2548 54.1426 31.7457 54.7726 31.7457H62.5682C63.7073 31.7457 64.7752 32.2014 65.5654 32.9881C66.3699 33.7925 66.8077 34.8462 66.8077 35.9853Z" fill="#0C1F3D"/>
<path d="M81.8648 42.6773C82.1104 43.2362 81.8648 43.9054 81.306 44.1475C81.1671 44.2187 81.007 44.2543 80.8503 44.2543C80.4303 44.2543 80.0281 44.0086 79.8358 43.6064L75.9452 35.0384C75.6462 34.3905 74.9805 33.9883 74.2793 33.9883C73.578 33.9883 72.9124 34.3905 72.6134 35.0384L68.7049 43.6064C68.4593 44.1653 67.7936 44.4109 67.2348 44.151C66.6759 43.9054 66.4303 43.2398 66.6901 42.6809L70.5808 34.1307C71.2465 32.6926 72.6846 31.7493 74.2757 31.7493C75.8669 31.7493 77.3049 32.6962 77.9564 34.1307L81.8648 42.6809V42.6773ZM76.2762 40.2248C76.2762 41.3282 75.3827 42.2217 74.2793 42.2217C73.1758 42.2217 72.2823 41.3282 72.2823 40.2248C72.2823 39.1213 73.1758 38.2278 74.2793 38.2278C75.3827 38.2278 76.2762 39.1213 76.2762 40.2248Z" fill="#0C1F3D"/>
</g>
</g>
<defs>
<clipPath id="clip0_15_2699">
<rect width="120" height="76" fill="white"/>
</clipPath>
<clipPath id="clip1_15_2699">
<rect width="44.328" height="56" fill="white" transform="translate(37.8359 10)"/>
</clipPath>
</defs>
</svg>
